<svg xmlns="http://www.w3.org/2000/svg" viewBox="0 0 64 64" role="img" aria-label="Artisan Marketplace clay pot logo">
  <rect width="64" height="64" rx="16" fill="#FFF4E4"/>
  <path d="M21 20h22" stroke="#7A3F24" stroke-width="5" stroke-linecap="round"/>
  <path d="M24 22h16l-2.2 7.5c5.1 2.4 8.2 7 8.2 12.2C46 50 39.7 56 32 56S18 50 18 41.7c0-5.2 3.1-9.8 8.2-12.2L24 22Z" fill="#C96F3D"/>
  <path d="M24 22h16l-2 7H26l-2-7Z" fill="#8D4A2B"/>
  <path d="M23 41c4.7 3.1 13.3 3.1 18 0" fill="none" stroke="#F1C28A" stroke-width="4" stroke-linecap="round"/>
  <path d="M27 31c3.1 1.6 6.9 1.6 10 0" fill="none" stroke="#F1C28A" stroke-width="3" stroke-linecap="round"/>
  <path d="M32 8v7" stroke="#C96F3D" stroke-width="4" stroke-linecap="round"/>
</svg>
