<svg xmlns="http://www.w3.org/2000/svg" viewBox="0 0 64 64" role="img" aria-label="Colorful mud pot logo">
  <path d="M20 15.5h24c1.9 0 3.5 1.6 3.5 3.5s-1.6 3.5-3.5 3.5H20c-1.9 0-3.5-1.6-3.5-3.5s1.6-3.5 3.5-3.5Z" fill="#7B3F24"/>
  <path d="M22.5 22.5h19l-2.7 8.1C43.8 33 47 37.6 47 42.9 47 51.2 40.3 57 32 57s-15-5.8-15-14.1c0-5.3 3.2-9.9 8.2-12.3l-2.7-8.1Z" fill="#C66A3A"/>
  <path d="M25 22.5h14L37.4 28H26.6L25 22.5Z" fill="#5F321F"/>
  <path d="M21 39c5.2 3.7 16.8 3.7 22 0" fill="none" stroke="#F4C46F" stroke-width="4" stroke-linecap="round"/>
  <path d="M22.5 45.5c4.8 2.6 14.2 2.6 19 0" fill="none" stroke="#2F9C95" stroke-width="4" stroke-linecap="round"/>
  <path d="M25 33.2c3.9 2 10.1 2 14 0" fill="none" stroke="#F7E0AA" stroke-width="3" stroke-linecap="round"/>
  <path d="M26 51c3.4 1.4 8.6 1.4 12 0" fill="none" stroke="#8B2F4F" stroke-width="3" stroke-linecap="round"/>
  <circle cx="27" cy="40" r="1.8" fill="#8B2F4F"/>
  <circle cx="32" cy="41.2" r="1.8" fill="#8B2F4F"/>
  <circle cx="37" cy="40" r="1.8" fill="#8B2F4F"/>
</svg>
